<svg width="155" height="31" viewBox="0 0 155 31" fill="none" xmlns="http://www.w3.org/2000/svg">
<path d="M10.4875 4.74244L5.745 9.48498L7.54176 11.274L9.33082 13.0708L12.3383 10.0633L15.3457 7.05588L18.3378 10.0479L21.3221 13.0322L23.0957 11.2586L24.8694 9.48498L20.1268 4.74244C17.5204 2.13597 15.3535 -9.44138e-05 15.3072 -9.44138e-05C15.2609 -9.44138e-05 13.094 2.13597 10.4875 4.74244Z" fill="#6F7470"/>
<path d="M130.053 7.21773C129.19 7.34111 128.766 7.43365 128.257 7.6033C125.496 8.50554 123.56 10.6185 122.72 13.6568C122.519 14.3585 122.512 16.9187 122.704 17.6976C123.753 22.0083 127.532 24.6147 132.02 24.1366C133.493 23.9824 134.542 23.6431 135.66 22.9722C136.253 22.6175 137.649 21.4145 137.649 21.2603C137.649 21.2063 137.133 20.6511 136.5 20.0187L135.351 18.8697L134.997 19.1782C134.518 19.6023 133.655 20.1729 133.13 20.412C132.567 20.6665 131.38 20.8516 130.678 20.7822C129.722 20.6896 128.75 20.2809 128.033 19.664C127.37 19.0856 126.738 17.9829 126.499 16.9881C126.344 16.3481 126.329 15.0063 126.468 14.4279C126.93 12.5155 128.203 11.1506 129.946 10.711C131.01 10.4411 132.29 10.5799 133.292 11.0812C133.763 11.3202 134.588 11.86 134.943 12.1762C135.089 12.2996 135.243 12.3844 135.29 12.3613C135.367 12.3304 136.932 10.5414 137.41 9.94758L137.588 9.72394L137.187 9.3538C136.076 8.3436 134.757 7.68812 133.215 7.36424C132.621 7.24086 130.539 7.14832 130.053 7.21773Z" fill="#6F7470"/>
<path d="M89.0671 7.49532C89.0286 7.59557 88.6353 8.52095 88.1957 9.56199C87.7485 10.603 87.0005 12.369 86.5224 13.4948C86.0442 14.6207 85.3502 16.2478 84.9801 17.1192C84.6099 17.9906 84.0701 19.2553 83.7848 19.9339C83.4995 20.6125 83.2064 21.3065 83.1293 21.4762C82.8286 22.1548 82.1268 23.8282 82.1268 23.8667C82.1268 23.8899 82.9674 23.9053 84.0007 23.9053L85.8669 23.8976L86.6072 22.07L87.3475 20.2423L90.7791 20.2192L94.2107 20.2038L94.3726 20.6048C94.4651 20.8284 94.7659 21.5687 95.0435 22.2473C95.3211 22.9259 95.591 23.5737 95.6373 23.6894L95.7144 23.9053H97.6423C99.1537 23.9053 99.5624 23.8821 99.5316 23.805C99.5084 23.7588 99.385 23.4657 99.2617 23.1727C99.1383 22.8719 98.9686 22.4787 98.8838 22.2859C98.799 22.0931 98.4982 21.3991 98.2206 20.7436C97.7039 19.5329 96.6629 17.0806 95.352 13.9961C94.9587 13.063 94.3109 11.5515 93.9253 10.6416C93.5398 9.73164 93.1773 8.87567 93.1233 8.75229C93.0694 8.62119 92.9074 8.25105 92.7686 7.91945L92.5064 7.32567H90.8253C89.152 7.32567 89.1442 7.32567 89.0671 7.49532ZM91.1724 12.7622C91.3651 13.2249 91.7353 14.1272 91.9975 14.7672C92.252 15.3996 92.5681 16.1553 92.6915 16.4406L92.9151 16.965H90.7868C89.1211 16.965 88.6738 16.9418 88.7047 16.8647C88.7278 16.8185 88.99 16.163 89.2985 15.4227C90.6788 12.0605 90.7636 11.8523 90.7945 11.8831C90.8099 11.8986 90.9796 12.2918 91.1724 12.7622Z" fill="#6F7470"/>
<path d="M36.167 15.6927V23.9131L40.8941 23.89L45.6135 23.8591L46.4155 23.6509C48.9217 22.9954 50.1247 21.6074 50.1247 19.371C50.1247 18.4997 50.0245 17.9907 49.7237 17.3738C49.369 16.6412 48.4436 15.8469 47.4951 15.4613L47.1327 15.3148L47.5337 15.0526C48.2817 14.5668 48.9217 13.6569 49.1145 12.8009C49.2533 12.2071 49.2148 11.0273 49.0451 10.472C48.6518 9.19965 47.5645 8.21259 46.0068 7.71906L45.3822 7.52627L40.7784 7.49542L36.167 7.47229V15.6927ZM44.4105 10.8422C44.8963 10.981 45.3745 11.3974 45.5055 11.7753C45.5518 11.9218 45.575 12.2611 45.5595 12.531C45.5364 12.9166 45.4824 13.0708 45.3128 13.3021C44.8269 13.9345 43.9555 14.1118 41.3182 14.1118H39.7143V12.4153V10.7188H41.858C43.5777 10.7188 44.0866 10.7419 44.4105 10.8422ZM45.3051 17.3352C46.1764 17.6591 46.5466 18.2298 46.4849 19.1397C46.4618 19.4944 46.4001 19.6487 46.215 19.8723C45.6444 20.5895 45.2434 20.6666 42.1665 20.6666H39.7143V18.8852V17.1039L42.2822 17.1347C44.6804 17.1656 44.8732 17.181 45.3051 17.3352Z" fill="#6F7470"/>
<path d="M54.5967 15.6926V23.9053H56.4474H58.2982V15.6926V7.4799H56.4474H54.5967V15.6926Z" fill="#6F7470"/>
<path d="M63.6965 15.6926V23.9053H65.5087H67.3209V18.754C67.3286 14.1503 67.3363 13.6259 67.4443 13.7647C67.745 14.1657 67.8993 14.3662 68.5239 15.1913C68.894 15.6772 69.4724 16.4329 69.804 16.8647C70.1356 17.3043 70.6754 18.0137 71.007 18.4456C72.21 20.0264 73.1508 21.2602 73.6674 21.9389C73.9605 22.3167 74.4154 22.9182 74.6776 23.2652L75.148 23.9053H76.7134H78.2712V15.6926V7.4799H76.459H74.6468L74.6314 12.4461L74.6082 17.4122L73.7831 16.3172C73.3358 15.7234 72.7266 14.9137 72.4336 14.5359C72.1406 14.1503 71.5159 13.3406 71.0532 12.7237C70.5829 12.1068 69.858 11.1505 69.4416 10.603C68.0766 8.80627 67.452 7.98886 67.2515 7.73438L67.051 7.4799H65.3776H63.6965V15.6926Z" fill="#6F7470"/>
<path d="M103.387 7.53388C103.356 7.55701 103.333 11.2585 103.333 15.7466V23.9053L105.168 23.8899L106.996 23.8667L107.035 18.754L107.073 13.6336L107.428 14.1272C107.628 14.3894 108.091 15.014 108.469 15.4998C109.333 16.6257 110.289 17.8826 110.99 18.8157C111.291 19.2167 111.561 19.5637 111.584 19.5869C111.615 19.61 111.893 19.9724 112.201 20.3966C112.517 20.8207 112.795 21.1831 112.818 21.2063C112.841 21.2294 113.273 21.7923 113.782 22.4632C114.291 23.1341 114.746 23.7356 114.792 23.7973C114.862 23.8821 115.178 23.9053 116.435 23.9053H117.985V15.6926V7.4799H116.173H114.36L114.345 12.4461L114.322 17.4045L113.844 16.7799C112.224 14.6361 109.764 11.405 109.209 10.6801C108.978 10.3794 108.345 9.53886 107.79 8.80627L106.78 7.4799H105.107C104.189 7.4799 103.41 7.50303 103.387 7.53388Z" fill="#6F7470"/>
<path d="M141.891 15.6926V23.9053H148.06H154.229V22.2859V20.6665H149.872H145.515V18.97V17.2734H149.371H153.226L153.211 15.6309L153.188 13.9961L149.355 13.9729L145.515 13.9575V12.3381V10.7187H149.872H154.229V9.0993V7.4799H148.06H141.891V15.6926Z" fill="#6F7470"/>
<path d="M13.5107 13.672L11.7217 15.4611L13.5184 17.2578L15.3075 19.0469L17.1197 17.2347L18.9319 15.4148L17.1582 13.6489C16.1866 12.6772 15.3692 11.8829 15.3461 11.8829C15.3229 11.8752 14.4978 12.6849 13.5107 13.672Z" fill="#6F7470"/>
<path d="M1.63483 13.5952C0.377861 14.8522 0 15.2763 0 15.4228C0 15.5694 0.385572 16.0012 1.68109 17.289L3.35448 18.9624L5.11269 17.2505C6.07662 16.3097 6.86318 15.5 6.86318 15.4614C6.86318 15.3612 3.45473 11.9527 3.35448 11.9527C3.30821 11.9527 2.53706 12.693 1.63483 13.5952Z" fill="#6F7470"/>
<path d="M25.4863 13.6878L23.7126 15.4151L25.4863 17.1888L27.2599 18.9624L29.0181 17.235C29.982 16.2788 30.7686 15.4768 30.7686 15.4383C30.7686 15.3766 27.3602 11.9527 27.2985 11.9527C27.2753 11.9604 26.4656 12.7393 25.4863 13.6878Z" fill="#6F7470"/>
<path d="M7.5337 19.6486L5.7832 21.3991L10.5489 26.1571L15.3068 30.915L20.0725 26.1802C22.6867 23.5737 24.8305 21.4145 24.8305 21.3683C24.8305 21.3297 24.0439 20.5354 23.0877 19.5946L21.3449 17.8981L18.322 20.8593L15.3068 23.8282L12.3379 20.8593C10.7031 19.2245 9.3536 17.8904 9.33047 17.8904C9.30733 17.8904 8.50534 18.677 7.5337 19.6486Z" fill="#6F7470"/>
</svg>
