<svg width="125" height="29" viewBox="0 0 125 29" fill="none" xmlns="http://www.w3.org/2000/svg">
<path d="M16.0451 0.123775C15.6833 0.263803 14.3297 1.54741 10.2688 5.61993C7.33989 8.53722 4.91271 10.8944 4.86604 10.8477C4.81936 10.801 4.78435 9.29571 4.78435 7.51033C4.78435 3.86956 4.77269 3.77621 3.99085 3.07606C3.19735 2.36425 2.39218 2.23589 1.44698 2.67931C0.770174 2.99438 0.315078 3.51949 0.128372 4.20797C0.0466883 4.52304 1.17603e-05 7.72038 1.17603e-05 14.3718C1.17603e-05 25.0257 -0.0116574 24.8623 0.700159 25.5858C1.83206 26.7411 3.80415 26.461 4.52763 25.0374C4.77269 24.5356 4.78435 24.4072 4.78435 21.2216C4.78435 19.4012 4.81936 17.9192 4.86604 17.9192C4.91271 17.9192 7.29322 20.253 10.1522 23.112C15.59 28.5381 15.8584 28.7598 16.8386 28.7715C17.0836 28.7715 17.4687 28.6898 17.7137 28.5964C18.3089 28.3514 25.8471 20.8481 26.1505 20.1947C27.0374 18.2926 24.9836 16.2272 23.0115 17.0557C22.7315 17.1724 21.5762 18.2343 19.7092 20.1013L16.8269 22.9603L12.556 18.666L8.27343 14.3718L12.5093 10.1359C14.8431 7.80206 16.7919 5.89999 16.8619 5.89999C16.9202 5.89999 18.2855 7.20694 19.8959 8.80561C22.6148 11.5128 22.8482 11.7112 23.3616 11.8279C24.8319 12.1313 26.1622 11.2211 26.3256 9.79748C26.4656 8.65391 26.4539 8.63057 22.2414 4.40635C20.1176 2.25923 18.1805 0.415503 17.9471 0.287142C17.3403 -0.0279236 16.6169 -0.0862694 16.0451 0.123775Z" fill="#6F7470"/>
<path d="M74.7525 5.91175C73.3288 6.25015 71.6368 7.54543 70.96 8.81736C70.4699 9.72755 70.2715 10.9645 70.1782 13.5434C70.0965 15.6671 70.3416 18.4794 70.6683 19.3312C70.785 19.6113 71.065 20.1364 71.3101 20.4865C73.5972 23.8939 79.4551 23.8589 81.6256 20.4281C82.0924 19.6813 82.4774 18.7828 82.5708 18.1643L82.6525 17.6859H81.0305H79.4085L79.0351 18.4911C78.4749 19.6813 77.5064 20.2298 76.1878 20.1014C75.0559 19.9964 74.1924 19.3779 73.7839 18.386C73.5972 17.9193 73.5739 17.4759 73.5739 14.3019C73.5739 10.7778 73.5739 10.7428 73.854 10.2177C74.0057 9.92593 74.2624 9.56419 74.4374 9.41249C75.1609 8.72401 76.3745 8.47896 77.4597 8.80569C78.1132 8.9924 78.895 9.76256 79.1751 10.486L79.3851 11.0345H80.9955C82.8742 11.0345 82.8042 11.0928 82.3491 9.83258C81.6139 7.80215 80.4003 6.62357 78.4516 6.01677C77.6231 5.76005 75.6277 5.70171 74.7525 5.91175Z" fill="#6F7470"/>
<path d="M89.9692 6.00503C88.9774 6.32009 88.4172 6.6585 87.6237 7.38198C86.3751 8.53723 85.9667 9.47076 85.7567 11.5829C85.57 13.4266 85.6867 17.6041 85.9434 18.561C86.3868 20.218 87.4604 21.5833 88.9307 22.3301C90.8561 23.2987 93.365 23.252 95.2087 22.2018C96.0722 21.7117 97.0757 20.6731 97.4608 19.8796C98.0443 18.6777 98.161 17.9659 98.2193 15.0019C98.2893 11.6062 98.126 10.2526 97.4958 8.98065C96.8073 7.56869 95.3137 6.36677 93.7617 5.95835C92.7932 5.7133 90.7977 5.73664 89.9692 6.00503ZM92.7815 8.77061C94.5319 9.26071 94.987 10.4276 94.987 14.4418C94.987 17.2891 94.7536 18.526 94.0768 19.2378C92.5948 20.8015 89.8292 20.1713 89.2107 18.1293C88.9657 17.3241 88.849 13.6483 89.0124 11.9213C89.1991 10.0075 89.7825 9.12068 91.0895 8.75894C91.848 8.5489 91.9997 8.5489 92.7815 8.77061Z" fill="#6F7470"/>
<path d="M36.0231 5.98177C35.9764 6.01678 35.9414 9.79757 35.9414 14.3602C35.9414 21.315 35.9647 22.692 36.1048 22.8087C36.2098 22.902 36.7466 22.937 37.7034 22.9137L39.1504 22.8787L39.1854 20.3581L39.2088 17.8376L40.2707 16.5657C40.8541 15.8655 41.3909 15.2821 41.4726 15.2587C41.5426 15.2471 42.0677 16.0289 42.6395 17.0091C43.2113 17.9893 44.2265 19.728 44.9033 20.8599L46.1402 22.937H47.8673C49.7693 22.937 49.7693 22.937 49.3376 22.2369C49.2092 22.0152 48.4857 20.8016 47.7506 19.553C47.0154 18.3044 45.8135 16.2739 45.09 15.0487C44.3548 13.8118 43.7597 12.7382 43.7597 12.6565C43.7597 12.5632 44.2732 11.8863 44.9033 11.1395C45.5218 10.4044 46.2452 9.54085 46.502 9.22579C46.7587 8.91072 47.1671 8.42062 47.4238 8.12889C47.6689 7.83716 47.9489 7.48708 48.0656 7.35872C48.1707 7.23036 48.4857 6.84528 48.7541 6.50688L49.2676 5.90008H47.2838H45.3117L42.3478 9.45917C40.7141 11.4196 39.3488 13.0183 39.3021 13.0183C39.2438 13.0183 39.2088 11.4196 39.2088 9.45917V5.90008H37.6568C36.7933 5.90008 36.0581 5.93509 36.0231 5.98177Z" fill="#6F7470"/>
<path d="M53.0946 11.863C53.0946 18.4327 53.1063 18.5961 53.8298 19.938C54.985 22.1201 57.6106 23.3454 60.3061 22.9487C62.6983 22.6103 64.507 21.1633 65.2538 18.9928C65.5222 18.211 65.5222 18.176 65.5222 12.0847V5.9584L63.9236 5.9234L62.3132 5.88839V11.6646C62.3132 17.2191 62.3015 17.4642 62.0682 18.0943C61.6364 19.2495 60.4462 20.1364 59.3259 20.1364C58.3574 20.1364 57.2021 19.3896 56.712 18.4327L56.4203 17.8609L56.362 11.9097L56.3036 5.9584L54.7049 5.9234L53.0946 5.88839V11.863Z" fill="#6F7470"/>
<path d="M103.178 14.3835L103.213 22.8786L104.684 22.9136C105.827 22.9369 106.189 22.9019 106.294 22.7852C106.387 22.6569 106.411 20.4514 106.399 14.2901L106.364 5.95834L104.754 5.92333L103.155 5.88833L103.178 14.3835Z" fill="#6F7470"/>
<path d="M111.849 6.04011C111.814 6.1218 111.802 9.94927 111.814 14.5352L111.849 22.8787H113.424H115L115.058 17.6392L115.116 12.3998L116.283 14.1968C116.913 15.1887 118.115 17.0441 118.944 18.3277C119.784 19.6113 120.788 21.175 121.196 21.7934L121.943 22.937H123.273C124.242 22.937 124.638 22.8903 124.732 22.7736C124.825 22.6686 124.848 20.3465 124.837 14.2902L124.802 5.95843L123.203 5.92342L121.593 5.88841V11.0345C121.593 14.0685 121.546 16.1689 121.488 16.1689C121.429 16.1689 120.834 15.3287 120.169 14.3019C119.504 13.275 118.535 11.758 118.01 10.9411C117.473 10.1243 116.528 8.654 115.91 7.67379L114.766 5.90008H113.331C112.292 5.90008 111.884 5.93509 111.849 6.04011Z" fill="#6F7470"/>
<path d="M16.0805 12.1077C15.8355 12.1661 15.4387 12.4228 15.1937 12.6795C14.0384 13.8231 14.3302 15.7252 15.7538 16.4953C16.5006 16.8921 17.5275 16.8221 18.216 16.3436C19.4763 15.4568 19.5813 13.6597 18.4377 12.6212C17.7726 12.0144 17.0257 11.851 16.0805 12.1077Z" fill="#6F7470"/>
</svg>
