<svg width="186" height="37" viewBox="0 0 186 37" fill="none" xmlns="http://www.w3.org/2000/svg">
<path fill-rule="evenodd" clip-rule="evenodd" d="M9.47309 11.1296L0 3.75004V0.993383C0 0.166344 0.952885 -0.297217 1.60357 0.213274L9.47445 6.38832L17.2313 0.231498C17.8811 -0.284287 18.8393 0.178488 18.8393 1.00813V3.83545L9.48614 11.1215L9.48479 11.1205L9.47309 11.1296ZM1.274 12.4412C0.470082 11.815 0 10.8529 0 9.83386V6.7065L9.47437 14.087L18.8393 6.79178V9.91916C18.8393 10.9382 18.3692 11.9003 17.5653 12.5265L10.4054 18.104C15.1293 18.5975 18.8117 22.5919 18.8117 27.4464C18.8117 32.6343 14.606 36.84 9.41804 36.84C4.23008 36.84 0.0244141 32.6343 0.0244141 27.4464C0.0244141 22.5577 3.75885 18.5413 8.53063 18.0941L1.274 12.4412ZM7.18457 21.1043H8.33529V22.2547H9.32227V21.1043H10.473V22.2699C11.0003 22.3003 11.4966 22.3763 11.9621 22.4979C12.5895 22.66 13.0939 22.9268 13.4755 23.2982C13.8635 23.6643 14.0575 24.1612 14.0575 24.7889C14.0575 25.2021 13.9605 25.5708 13.7665 25.8951C13.579 26.2194 13.3267 26.4862 13.0098 26.6954C12.6994 26.8994 12.3599 27.0354 11.9912 27.1034C12.3146 27.1348 12.6283 27.2106 12.9322 27.3309C13.2427 27.446 13.5208 27.6081 13.7665 27.8174C14.0187 28.0213 14.216 28.2776 14.3583 28.5862C14.507 28.8896 14.5814 29.2505 14.5814 29.669C14.5814 30.2496 14.4197 30.7621 14.0964 31.2067C13.7795 31.6461 13.3138 31.9913 12.6994 32.2424C12.0948 32.4869 11.3527 32.6098 10.473 32.6111V33.7617H9.32227V32.6111H8.33529V33.7617H7.18457V32.6111H6.3623V32.6119H4.71842V31.4612H5.54004V23.4054H4.71842V22.2547H5.54004H6.3623H7.18457V21.1043ZM8.44065 30.736H9.75999C10.1739 30.736 10.5102 30.6863 10.7689 30.5869C11.0341 30.4823 11.2281 30.3359 11.351 30.1476C11.4738 29.954 11.5353 29.7239 11.5353 29.4571C11.5353 29.0387 11.3736 28.7327 11.0502 28.5392C10.7333 28.3404 10.2871 28.241 9.71148 28.241H8.44065V30.736ZM8.44065 26.4051H9.61447C9.95724 26.4051 10.2418 26.3554 10.4682 26.256C10.701 26.1567 10.8756 26.0181 10.992 25.8402C11.1149 25.6571 11.1763 25.4479 11.1763 25.2125C11.1763 24.7889 11.0276 24.5038 10.7301 24.3574C10.4326 24.2057 10.0252 24.1298 9.50776 24.1298H8.44065V26.4051Z" fill="#FFD600"/>
<path d="M37.7934 21.1103H41.1229C41.0561 22.2016 40.7554 23.1704 40.2209 24.0167C39.6938 24.863 38.9552 25.5237 38.005 25.9988C37.0622 26.4739 35.9263 26.7115 34.5975 26.7115C33.5582 26.7115 32.6265 26.5333 31.8025 26.177C30.9785 25.8132 30.2732 25.2936 29.6868 24.618C29.1077 23.9425 28.666 23.1259 28.3617 22.1682C28.0573 21.2106 27.9051 20.1378 27.9051 18.9501V17.8254C27.9051 16.6376 28.061 15.5649 28.3728 14.6072C28.692 13.6422 29.1448 12.8219 29.7313 12.1463C30.3252 11.4708 31.0342 10.9511 31.8582 10.5873C32.6822 10.2236 33.6027 10.0417 34.6198 10.0417C35.9709 10.0417 37.1104 10.2867 38.0384 10.7766C38.9737 11.2666 39.6975 11.9422 40.2098 12.8033C40.7294 13.6644 41.0412 14.6444 41.1452 15.7431H37.8045C37.7674 15.0898 37.6375 14.5367 37.4148 14.0839C37.1921 13.6236 36.8543 13.2784 36.4015 13.0483C35.956 12.8107 35.3621 12.6919 34.6198 12.6919C34.063 12.6919 33.5768 12.7959 33.161 13.0037C32.7453 13.2116 32.3964 13.5271 32.1143 13.9502C31.8322 14.3734 31.6206 14.9079 31.4796 15.5538C31.346 16.1922 31.2791 16.942 31.2791 17.8031V18.9501C31.2791 19.7889 31.3422 20.5276 31.4684 21.166C31.5946 21.797 31.7877 22.3315 32.0475 22.7695C32.3147 23.2001 32.6562 23.5267 33.0719 23.7494C33.4951 23.9647 34.0036 24.0724 34.5975 24.0724C35.2953 24.0724 35.8707 23.961 36.3235 23.7383C36.7763 23.5156 37.1215 23.1853 37.3591 22.7473C37.6041 22.3093 37.7488 21.7636 37.7934 21.1103ZM46.3231 17.0682V26.4888H43.1161V14.4402H46.1338L46.3231 17.0682ZM49.9533 14.3623L49.8976 17.3354C49.7417 17.3132 49.5524 17.2946 49.3297 17.2797C49.1144 17.2575 48.9177 17.2463 48.7395 17.2463C48.2867 17.2463 47.8932 17.3057 47.5592 17.4245C47.2325 17.5359 46.9579 17.7029 46.7352 17.9256C46.5199 18.1483 46.3565 18.4193 46.2452 18.7385C46.1413 19.0577 46.0819 19.4215 46.067 19.8298L45.4212 19.6293C45.4212 18.8498 45.4991 18.1335 45.655 17.4802C45.8109 16.8195 46.0373 16.2442 46.3343 15.7542C46.6386 15.2642 47.0098 14.8856 47.4478 14.6184C47.8858 14.3511 48.3869 14.2175 48.9511 14.2175C49.1293 14.2175 49.3112 14.2323 49.4967 14.262C49.6823 14.2843 49.8345 14.3177 49.9533 14.3623ZM55.2426 25.1302L58.4385 14.4402H61.8794L57.0354 28.3038C56.9315 28.6082 56.7905 28.9349 56.6123 29.2838C56.4416 29.6327 56.2077 29.963 55.9108 30.2748C55.6212 30.594 55.2538 30.8539 54.8084 31.0543C54.3704 31.2547 53.8321 31.355 53.1937 31.355C52.8893 31.355 52.6407 31.3364 52.4476 31.2993C52.2546 31.2622 52.0245 31.2102 51.7572 31.1434V28.7938C51.8389 28.7938 51.9243 28.7938 52.0134 28.7938C52.1024 28.8012 52.1878 28.8049 52.2695 28.8049C52.6926 28.8049 53.0378 28.7567 53.3051 28.6602C53.5723 28.5637 53.7876 28.4152 53.9509 28.2148C54.1142 28.0218 54.2442 27.7693 54.3407 27.4576L55.2426 25.1302ZM53.9064 14.4402L56.5232 23.1704L56.9798 26.5667L54.7972 26.8006L50.4655 14.4402H53.9064ZM66.367 16.7564V31.1211H63.1599V14.4402H66.1331L66.367 16.7564ZM73.9947 20.3309V20.5647C73.9947 21.4407 73.8908 22.2536 73.683 23.0034C73.4825 23.7532 73.1856 24.4064 72.7921 24.9632C72.3987 25.5126 71.9087 25.9431 71.3222 26.2549C70.7432 26.5593 70.0751 26.7115 69.3179 26.7115C68.5829 26.7115 67.9445 26.563 67.4026 26.2661C66.8606 25.9691 66.4041 25.5534 66.0329 25.0189C65.6691 24.477 65.3759 23.8497 65.1532 23.137C64.9305 22.4243 64.7597 21.6597 64.641 20.8431V20.2306C64.7597 19.3547 64.9305 18.5529 65.1532 17.8254C65.3759 17.0904 65.6691 16.4557 66.0329 15.9212C66.4041 15.3793 66.8569 14.9599 67.3914 14.6629C67.9333 14.366 68.5681 14.2175 69.2956 14.2175C70.0602 14.2175 70.7321 14.3623 71.3111 14.6518C71.8976 14.9413 72.3875 15.357 72.781 15.899C73.1819 16.4409 73.4825 17.0867 73.683 17.8365C73.8908 18.5863 73.9947 19.4178 73.9947 20.3309ZM70.7766 20.5647V20.3309C70.7766 19.8186 70.7321 19.3472 70.643 18.9167C70.5613 18.4787 70.4277 18.0963 70.2421 17.7697C70.0639 17.4431 69.8264 17.1907 69.5294 17.0125C69.2399 16.8269 68.8873 16.7341 68.4716 16.7341C68.0336 16.7341 67.6587 16.8046 67.3469 16.9457C67.0425 17.0867 66.7938 17.2909 66.6008 17.5581C66.4078 17.8254 66.263 18.1446 66.1665 18.5158C66.07 18.887 66.0106 19.3064 65.9884 19.7741V21.3219C66.0255 21.8713 66.1294 22.3649 66.3001 22.8029C66.4709 23.2335 66.7344 23.575 67.0908 23.8274C67.4471 24.0798 67.9148 24.206 68.4938 24.206C68.917 24.206 69.2733 24.1132 69.5628 23.9276C69.8524 23.7346 70.0862 23.4711 70.2644 23.137C70.45 22.8029 70.5799 22.4169 70.6541 21.9789C70.7358 21.5409 70.7766 21.0695 70.7766 20.5647ZM81.8898 14.4402V16.7118H74.8744V14.4402H81.8898ZM76.6116 11.467H79.8186V22.8586C79.8186 23.2075 79.8631 23.4748 79.9522 23.6604C80.0487 23.846 80.1898 23.9759 80.3754 24.0501C80.561 24.1169 80.7948 24.1503 81.0769 24.1503C81.2773 24.1503 81.4555 24.1429 81.6114 24.1281C81.7747 24.1058 81.9121 24.0835 82.0234 24.0612L82.0345 26.422C81.7599 26.511 81.4629 26.5816 81.1437 26.6335C80.8245 26.6855 80.4719 26.7115 80.0858 26.7115C79.3806 26.7115 78.7644 26.5964 78.2374 26.3663C77.7177 26.1287 77.3168 25.7501 77.0347 25.2305C76.7526 24.7108 76.6116 24.0278 76.6116 23.1815V11.467ZM82.9142 20.587V20.3531C82.9142 19.4697 83.0404 18.6568 83.2929 17.9145C83.5453 17.1647 83.9127 16.5151 84.3953 15.9658C84.8778 15.4164 85.4717 14.9896 86.1769 14.6852C86.8822 14.3734 87.6914 14.2175 88.6045 14.2175C89.5176 14.2175 90.3305 14.3734 91.0431 14.6852C91.7558 14.9896 92.3534 15.4164 92.8359 15.9658C93.3259 16.5151 93.6971 17.1647 93.9495 17.9145C94.2019 18.6568 94.3281 19.4697 94.3281 20.3531V20.587C94.3281 21.463 94.2019 22.2759 93.9495 23.0256C93.6971 23.768 93.3259 24.4176 92.8359 24.9743C92.3534 25.5237 91.7595 25.9506 91.0543 26.2549C90.349 26.5593 89.5398 26.7115 88.6267 26.7115C87.7136 26.7115 86.9007 26.5593 86.1881 26.2549C85.4828 25.9506 84.8852 25.5237 84.3953 24.9743C83.9127 24.4176 83.5453 23.768 83.2929 23.0256C83.0404 22.2759 82.9142 21.463 82.9142 20.587ZM86.1213 20.3531V20.587C86.1213 21.0918 86.1658 21.5632 86.2549 22.0012C86.344 22.4392 86.485 22.8252 86.678 23.1593C86.8785 23.4859 87.1383 23.742 87.4575 23.9276C87.7767 24.1132 88.1665 24.206 88.6267 24.206C89.0722 24.206 89.4545 24.1132 89.7737 23.9276C90.0929 23.742 90.349 23.4859 90.542 23.1593C90.735 22.8252 90.8761 22.4392 90.9652 22.0012C91.0617 21.5632 91.1099 21.0918 91.1099 20.587V20.3531C91.1099 19.8632 91.0617 19.4029 90.9652 18.9723C90.8761 18.5343 90.7313 18.1483 90.5309 17.8142C90.3379 17.4728 90.0818 17.2055 89.7626 17.0125C89.4433 16.8195 89.0573 16.723 88.6045 16.723C88.1516 16.723 87.7656 16.8195 87.4464 17.0125C87.1346 17.2055 86.8785 17.4728 86.678 17.8142C86.485 18.1483 86.344 18.5343 86.2549 18.9723C86.1658 19.4029 86.1213 19.8632 86.1213 20.3531ZM106.087 23.9165L109.316 10.2755H111.12L111.532 12.5472L108.092 26.4888H106.154L106.087 23.9165ZM104.428 10.2755L107.1 23.9165L106.878 26.4888H104.717L101.121 10.2755H104.428ZM114.372 23.8608L117.011 10.2755H120.318L116.733 26.4888H114.572L114.372 23.8608ZM112.134 10.2755L115.385 23.9722L115.296 26.4888H113.359L109.895 12.536L110.341 10.2755H112.134ZM127.122 26.7115C126.187 26.7115 125.348 26.563 124.605 26.2661C123.863 25.9617 123.232 25.5423 122.712 25.0078C122.2 24.4733 121.807 23.8534 121.532 23.1481C121.257 22.4355 121.12 21.6783 121.12 20.8765V20.4311C121.12 19.518 121.25 18.6828 121.51 17.9256C121.77 17.1684 122.141 16.5114 122.623 15.9546C123.113 15.3979 123.707 14.971 124.405 14.6741C125.103 14.3697 125.89 14.2175 126.766 14.2175C127.619 14.2175 128.377 14.3585 129.037 14.6406C129.698 14.9227 130.251 15.3236 130.696 15.8433C131.149 16.3629 131.491 16.9865 131.721 17.714C131.951 18.4341 132.066 19.2359 132.066 20.1193V21.4555H122.49V19.3175H128.915V19.0726C128.915 18.6271 128.833 18.23 128.67 17.8811C128.514 17.5247 128.276 17.2426 127.957 17.0348C127.638 16.8269 127.23 16.723 126.732 16.723C126.309 16.723 125.945 16.8158 125.641 17.0014C125.337 17.187 125.088 17.4468 124.895 17.7808C124.709 18.1149 124.568 18.5084 124.472 18.9612C124.383 19.4066 124.338 19.8966 124.338 20.4311V20.8765C124.338 21.359 124.405 21.8045 124.539 22.2128C124.68 22.6211 124.876 22.9737 125.129 23.2706C125.389 23.5676 125.7 23.7977 126.064 23.961C126.435 24.1243 126.855 24.206 127.322 24.206C127.901 24.206 128.44 24.0946 128.937 23.8719C129.442 23.6418 129.876 23.2966 130.24 22.8363L131.799 24.5289C131.546 24.8927 131.201 25.2416 130.763 25.5757C130.333 25.9097 129.813 26.1844 129.204 26.3997C128.596 26.6075 127.901 26.7115 127.122 26.7115ZM139.794 14.4402V16.7118H132.779V14.4402H139.794ZM134.516 11.467H137.723V22.8586C137.723 23.2075 137.767 23.4748 137.857 23.6604C137.953 23.846 138.094 23.9759 138.28 24.0501C138.465 24.1169 138.699 24.1503 138.981 24.1503C139.182 24.1503 139.36 24.1429 139.516 24.1281C139.679 24.1058 139.816 24.0835 139.928 24.0612L139.939 26.422C139.664 26.511 139.367 26.5816 139.048 26.6335C138.729 26.6855 138.376 26.7115 137.99 26.7115C137.285 26.7115 136.669 26.5964 136.142 26.3663C135.622 26.1287 135.221 25.7501 134.939 25.2305C134.657 24.7108 134.516 24.0278 134.516 23.1815V11.467ZM147.166 26.7115C146.23 26.7115 145.392 26.563 144.649 26.2661C143.907 25.9617 143.276 25.5423 142.756 25.0078C142.244 24.4733 141.851 23.8534 141.576 23.1481C141.301 22.4355 141.164 21.6783 141.164 20.8765V20.4311C141.164 19.518 141.294 18.6828 141.554 17.9256C141.813 17.1684 142.185 16.5114 142.667 15.9546C143.157 15.3979 143.751 14.971 144.449 14.6741C145.147 14.3697 145.934 14.2175 146.809 14.2175C147.663 14.2175 148.42 14.3585 149.081 14.6406C149.742 14.9227 150.295 15.3236 150.74 15.8433C151.193 16.3629 151.535 16.9865 151.765 17.714C151.995 18.4341 152.11 19.2359 152.11 20.1193V21.4555H142.533V19.3175H148.959V19.0726C148.959 18.6271 148.877 18.23 148.714 17.8811C148.558 17.5247 148.32 17.2426 148.001 17.0348C147.682 16.8269 147.273 16.723 146.776 16.723C146.353 16.723 145.989 16.8158 145.685 17.0014C145.38 17.187 145.132 17.4468 144.939 17.7808C144.753 18.1149 144.612 18.5084 144.516 18.9612C144.427 19.4066 144.382 19.8966 144.382 20.4311V20.8765C144.382 21.359 144.449 21.8045 144.582 22.2128C144.723 22.6211 144.92 22.9737 145.173 23.2706C145.432 23.5676 145.744 23.7977 146.108 23.961C146.479 24.1243 146.899 24.206 147.366 24.206C147.945 24.206 148.484 24.0946 148.981 23.8719C149.486 23.6418 149.92 23.2966 150.284 22.8363L151.843 24.5289C151.59 24.8927 151.245 25.2416 150.807 25.5757C150.377 25.9097 149.857 26.1844 149.248 26.3997C148.639 26.6075 147.945 26.7115 147.166 26.7115ZM157.143 17.0682V26.4888H153.936V14.4402H156.954L157.143 17.0682ZM160.773 14.3623L160.718 17.3354C160.562 17.3132 160.372 17.2946 160.15 17.2797C159.934 17.2575 159.738 17.2463 159.56 17.2463C159.107 17.2463 158.713 17.3057 158.379 17.4245C158.053 17.5359 157.778 17.7029 157.555 17.9256C157.34 18.1483 157.177 18.4193 157.065 18.7385C156.961 19.0577 156.902 19.4215 156.887 19.8298L156.241 19.6293C156.241 18.8498 156.319 18.1335 156.475 17.4802C156.631 16.8195 156.857 16.2442 157.154 15.7542C157.459 15.2642 157.83 14.8856 158.268 14.6184C158.706 14.3511 159.207 14.2175 159.771 14.2175C159.949 14.2175 160.131 14.2323 160.317 14.262C160.502 14.2843 160.655 14.3177 160.773 14.3623ZM168.412 23.7717V18.4044C168.412 18.0184 168.349 17.688 168.223 17.4134C168.097 17.1313 167.9 16.9123 167.633 16.7564C167.373 16.6005 167.035 16.5225 166.619 16.5225C166.263 16.5225 165.955 16.5856 165.695 16.7118C165.435 16.8306 165.235 17.0051 165.094 17.2352C164.953 17.4579 164.882 17.7215 164.882 18.0258H161.675C161.675 17.5136 161.794 17.0273 162.032 16.5671C162.269 16.1068 162.614 15.7022 163.067 15.3533C163.52 14.997 164.058 14.7186 164.682 14.5182C165.313 14.3177 166.018 14.2175 166.798 14.2175C167.733 14.2175 168.564 14.3734 169.292 14.6852C170.019 14.997 170.591 15.4647 171.007 16.0883C171.43 16.7118 171.642 17.4913 171.642 18.4267V23.5824C171.642 24.2431 171.682 24.785 171.764 25.2082C171.846 25.6239 171.964 25.9877 172.12 26.2995V26.4888H168.88C168.724 26.1621 168.605 25.7538 168.524 25.2639C168.449 24.7665 168.412 24.2691 168.412 23.7717ZM168.835 19.1505L168.858 20.9656H167.065C166.642 20.9656 166.274 21.0138 165.962 21.1103C165.651 21.2069 165.395 21.3442 165.194 21.5224C164.994 21.6931 164.845 21.8935 164.749 22.1237C164.66 22.3538 164.615 22.6062 164.615 22.8809C164.615 23.1556 164.678 23.4042 164.804 23.627C164.931 23.8422 165.112 24.013 165.35 24.1392C165.588 24.258 165.866 24.3174 166.185 24.3174C166.668 24.3174 167.087 24.2208 167.443 24.0278C167.8 23.8348 168.075 23.5973 168.268 23.3152C168.468 23.0331 168.572 22.7658 168.579 22.5134L169.426 23.8719C169.307 24.1763 169.144 24.4918 168.936 24.8185C168.735 25.1451 168.479 25.4532 168.167 25.7427C167.856 26.0248 167.481 26.2586 167.043 26.4442C166.605 26.6224 166.085 26.7115 165.484 26.7115C164.719 26.7115 164.025 26.5593 163.401 26.2549C162.785 25.9431 162.295 25.5163 161.931 24.9743C161.575 24.425 161.397 23.8014 161.397 23.1036C161.397 22.4726 161.516 21.9121 161.753 21.4221C161.991 20.9322 162.34 20.5202 162.8 20.1861C163.268 19.8446 163.85 19.5885 164.548 19.4178C165.246 19.2396 166.055 19.1505 166.976 19.1505H168.835ZM177.254 17.0125V26.4888H174.047V14.4402H177.053L177.254 17.0125ZM176.786 20.0413H175.918C175.918 19.1505 176.033 18.3488 176.263 17.6361C176.493 16.916 176.816 16.3035 177.232 15.7987C177.647 15.2865 178.141 14.8968 178.713 14.6295C179.292 14.3548 179.937 14.2175 180.65 14.2175C181.214 14.2175 181.73 14.2992 182.198 14.4625C182.666 14.6258 183.067 14.8856 183.401 15.242C183.742 15.5983 184.002 16.0697 184.18 16.6562C184.366 17.2426 184.458 17.959 184.458 18.8053V26.4888H181.229V18.7942C181.229 18.2597 181.155 17.8439 181.006 17.547C180.858 17.2501 180.639 17.0422 180.349 16.9234C180.067 16.7972 179.718 16.7341 179.303 16.7341C178.872 16.7341 178.497 16.8195 178.178 16.9902C177.866 17.161 177.606 17.3985 177.399 17.7029C177.198 17.9998 177.046 18.3488 176.942 18.7496C176.838 19.1505 176.786 19.5811 176.786 20.0413Z" fill="#FFD600"/>
</svg>
