<svg width="51" height="47" viewBox="0 0 51 47" fill="none" xmlns="http://www.w3.org/2000/svg">
<g filter="url(#filter0_d_558_370)">
<path d="M23.85 38V34.7778H37.05V23.3389C37.05 21.7815 36.7475 20.3181 36.1425 18.9486C35.5375 17.5792 34.7125 16.3843 33.6675 15.3639C32.6225 14.3435 31.3988 13.538 29.9963 12.9472C28.5938 12.3565 27.095 12.0611 25.5 12.0611C23.905 12.0611 22.4062 12.3565 21.0037 12.9472C19.6012 13.538 18.3775 14.3435 17.3325 15.3639C16.2875 16.3843 15.4625 17.5792 14.8575 18.9486C14.2525 20.3181 13.95 21.7815 13.95 23.3389V33.1667H12.3C11.3925 33.1667 10.6159 32.8514 9.9702 32.2209C9.3234 31.5894 9 30.8306 9 29.9444V26.7222C9 26.1046 9.15125 25.5606 9.45375 25.0902C9.75625 24.6208 10.155 24.2384 10.65 23.9431L10.7738 21.8083C11.0213 19.8481 11.5921 18.0759 12.4864 16.4917C13.3796 14.9074 14.4934 13.5648 15.8277 12.4639C17.1609 11.363 18.6596 10.5101 20.3239 9.90544C21.9871 9.30181 23.7125 9 25.5 9C27.315 9 29.0546 9.30181 30.7189 9.90544C32.3821 10.5101 33.8737 11.3694 35.1937 12.4832C36.5137 13.5981 37.6209 14.9407 38.5152 16.511C39.4084 18.0824 39.9787 19.8347 40.2262 21.7681L40.35 23.8625C40.845 24.1042 41.2438 24.4597 41.5463 24.9291C41.8488 25.3995 42 25.9167 42 26.4806V30.1861C42 30.7769 41.8488 31.3005 41.5463 31.7569C41.2438 32.2134 40.845 32.5625 40.35 32.8042V34.7778C40.35 35.6639 40.0271 36.4227 39.3814 37.0543C38.7346 37.6848 37.9575 38 37.05 38H23.85ZM20.55 26.7222C20.0825 26.7222 19.6909 26.5676 19.3752 26.2582C19.0584 25.95 18.9 25.5676 18.9 25.1111C18.9 24.6546 19.0584 24.2717 19.3752 23.9624C19.6909 23.6541 20.0825 23.5 20.55 23.5C21.0175 23.5 21.4097 23.6541 21.7265 23.9624C22.0422 24.2717 22.2 24.6546 22.2 25.1111C22.2 25.5676 22.0422 25.95 21.7265 26.2582C21.4097 26.5676 21.0175 26.7222 20.55 26.7222ZM30.45 26.7222C29.9825 26.7222 29.5909 26.5676 29.2752 26.2582C28.9584 25.95 28.8 25.5676 28.8 25.1111C28.8 24.6546 28.9584 24.2717 29.2752 23.9624C29.5909 23.6541 29.9825 23.5 30.45 23.5C30.9175 23.5 31.3097 23.6541 31.6265 23.9624C31.9422 24.2717 32.1 24.6546 32.1 25.1111C32.1 25.5676 31.9422 25.95 31.6265 26.2582C31.3097 26.5676 30.9175 26.7222 30.45 26.7222ZM15.6412 24.225C15.5312 22.6407 15.7584 21.2042 16.3227 19.9153C16.8859 18.6264 17.6416 17.5319 18.5898 16.6318C19.5391 15.7328 20.6325 15.0417 21.87 14.5583C23.1075 14.075 24.345 13.8333 25.5825 13.8333C28.085 13.8333 30.2509 14.6056 32.0802 16.1501C33.9084 17.6936 35.015 19.6199 35.4 21.9292C32.815 21.9023 30.4775 21.224 28.3875 19.8943C26.2975 18.5657 24.7162 16.8407 23.6437 14.7194C23.2037 16.8944 22.2759 18.8208 20.8602 20.4985C19.4434 22.1773 17.7037 23.4194 15.6412 24.225Z" fill="white"/>
</g>
<defs>
<filter id="filter0_d_558_370" x="0" y="0" width="51" height="47" filterUnits="userSpaceOnUse" color-interpolation-filters="sRGB">
<feFlood flood-opacity="0" result="BackgroundImageFix"/>
<feColorMatrix in="SourceAlpha" type="matrix" values="0 0 0 0 0 0 0 0 0 0 0 0 0 0 0 0 0 0 127 0" result="hardAlpha"/>
<feOffset/>
<feGaussianBlur stdDeviation="4.5"/>
<feComposite in2="hardAlpha" operator="out"/>
<feColorMatrix type="matrix" values="0 0 0 0 1 0 0 0 0 1 0 0 0 0 1 0 0 0 0.25 0"/>
<feBlend mode="normal" in2="BackgroundImageFix" result="effect1_dropShadow_558_370"/>
<feBlend mode="normal" in="SourceGraphic" in2="effect1_dropShadow_558_370" result="shape"/>
</filter>
</defs>
</svg>
